<?xml version="1.0" encoding="UTF-8"?>
<svg version="1.1" xmlns="http://www.w3.org/2000/svg" width="30" height="30" viewBox="0 0 50 50" preserveAspectRatio="xMidYMid meet">
<path d="M0 0 C1.05731323 0.00749268 1.05731323 0.00749268 2.13598633 0.01513672 C9.1670817 0.24974927 13.80282964 2.2218689 18.80078125 7.0625 C23.39608039 12.24030185 23.5329284 16.84191016 23.46875 23.484375 C22.96199992 28.91786196 20.78840983 31.942358 16.875 35.75 C10.21603237 40.08607194 5.17784108 40.86844633 -2.7265625 41.09375 C-6.14128379 41.54328293 -7.93712755 42.68069089 -10.8125 44.5 C-14.625 44.6875 -14.625 44.6875 -17.8125 44.5 C-17.461875 43.7575 -17.11125 43.015 -16.75 42.25 C-15.7112308 39.20294368 -15.50203633 38.38302008 -16.8125 35.5 C-18.45883943 33.4832342 -20.12517723 31.48260426 -21.8125 29.5 C-23.59718529 24.14594413 -23.85764547 17.70359806 -22.09375 12.296875 C-17.51606947 3.80601595 -9.35406828 -0.08680753 0 0 Z M-10.8125 19.5 C-10.8125 20.16 -10.8125 20.82 -10.8125 21.5 C-10.1525 21.5 -9.4925 21.5 -8.8125 21.5 C-8.8125 20.84 -8.8125 20.18 -8.8125 19.5 C-9.4725 19.5 -10.1325 19.5 -10.8125 19.5 Z M-0.8125 19.5 C-0.8125 20.16 -0.8125 20.82 -0.8125 21.5 C-0.1525 21.5 0.5075 21.5 1.1875 21.5 C1.1875 20.84 1.1875 20.18 1.1875 19.5 C0.5275 19.5 -0.1325 19.5 -0.8125 19.5 Z M9.1875 19.5 C9.1875 20.16 9.1875 20.82 9.1875 21.5 C9.8475 21.5 10.5075 21.5 11.1875 21.5 C11.1875 20.84 11.1875 20.18 11.1875 19.5 C10.5275 19.5 9.8675 19.5 9.1875 19.5 Z " fill="#F9B004" transform="translate(24.8125,3.5)"/>
</svg>
